<svg  width="25" height="25" fill="none" xmlns="http://www.w3.org/2000/svg" viewBox="0 0 50.000000 50.000000"
 preserveAspectRatio="xMidYMid meet">

<g transform="translate(0.000000,50.000000) scale(0.100000,-0.100000)"
fill="#FFF" stroke="#fff" stroke-width="20">
<path d="M202 393 c-21 -37 -74 -127 -116 -200 -42 -72 -79 -139 -82 -147 -5
-14 22 -16 245 -16 138 0 251 3 251 8 -1 14 -238 416 -248 420 -6 2 -28 -27
-50 -65z m160 -151 l107 -187 -110 -3 c-60 -1 -158 -1 -219 0 l-109 3 107 187
c59 103 109 188 112 188 3 0 53 -85 112 -188z" />
<path d="M234 297 c-3 -8 -4 -41 -2 -73 2 -44 7 -59 18 -59 12 0 15 14 15 69
0 47 -4 71 -12 73 -7 3 -15 -2 -19 -10z"  />
<path d="M230 115 c0 -8 9 -15 20 -15 11 0 20 7 20 15 0 8 -9 15 -20 15 -11 0
-20 -7 -20 -15z" />
</g>
</svg>
